<mxfile host="app.diagrams.net" modified="2021-05-06T23:28:45.606Z" agent="5.0 (Windows NT 10.0; Win64; x64) AppleWebKit/537.36 (KHTML, like Gecko) Chrome/90.0.4430.93 Safari/537.36" etag="5vJX6Jvgk4pkQhXVwF50" version="14.6.10" type="github">
  <diagram id="iCt2kkupKphGf7u-GzTc" name="Page-1">
    <mxGraphModel dx="1422" dy="728" grid="1" gridSize="10" guides="1" tooltips="1" connect="1" arrows="1" fold="1" page="1" pageScale="1" pageWidth="850" pageHeight="1100" math="0" shadow="0">
      <root>
        <mxCell id="0" />
        <mxCell id="1" parent="0" />
        <mxCell id="LcpJE_Fi3_uHCIA2HJHg-22" value="" style="ellipse;html=1;shape=startState;fillColor=#000000;strokeColor=#ff0000;" vertex="1" parent="1">
          <mxGeometry x="310" y="110" width="30" height="30" as="geometry" />
        </mxCell>
        <mxCell id="LcpJE_Fi3_uHCIA2HJHg-23" value="" style="edgeStyle=orthogonalEdgeStyle;html=1;verticalAlign=bottom;endArrow=open;endSize=8;strokeColor=#ff0000;rounded=0;" edge="1" source="LcpJE_Fi3_uHCIA2HJHg-22" parent="1">
          <mxGeometry relative="1" as="geometry">
            <mxPoint x="440" y="100" as="targetPoint" />
          </mxGeometry>
        </mxCell>
        <mxCell id="LcpJE_Fi3_uHCIA2HJHg-24" value="Enter Wood Type&lt;br&gt;P, F, C, M, O" style="ellipse;whiteSpace=wrap;html=1;" vertex="1" parent="1">
          <mxGeometry x="370" y="100" width="140" height="50" as="geometry" />
        </mxCell>
        <mxCell id="LcpJE_Fi3_uHCIA2HJHg-25" value="" style="line;strokeWidth=5;fillColor=none;align=left;verticalAlign=middle;spacingTop=-1;spacingLeft=3;spacingRight=3;rotatable=0;labelPosition=right;points=[];portConstraint=eastwest;" vertex="1" parent="1">
          <mxGeometry x="300" y="330" width="300" height="8" as="geometry" />
        </mxCell>
        <mxCell id="LcpJE_Fi3_uHCIA2HJHg-32" style="edgeStyle=orthogonalEdgeStyle;rounded=0;orthogonalLoop=1;jettySize=auto;html=1;" edge="1" parent="1" source="LcpJE_Fi3_uHCIA2HJHg-26" target="LcpJE_Fi3_uHCIA2HJHg-22">
          <mxGeometry relative="1" as="geometry" />
        </mxCell>
        <mxCell id="LcpJE_Fi3_uHCIA2HJHg-47" value="" style="edgeStyle=orthogonalEdgeStyle;rounded=0;orthogonalLoop=1;jettySize=auto;html=1;entryX=0;entryY=0.5;entryDx=0;entryDy=0;" edge="1" parent="1" target="LcpJE_Fi3_uHCIA2HJHg-41">
          <mxGeometry relative="1" as="geometry">
            <mxPoint x="240" y="160" as="sourcePoint" />
          </mxGeometry>
        </mxCell>
        <mxCell id="LcpJE_Fi3_uHCIA2HJHg-63" style="edgeStyle=orthogonalEdgeStyle;rounded=0;orthogonalLoop=1;jettySize=auto;html=1;" edge="1" parent="1" source="LcpJE_Fi3_uHCIA2HJHg-26">
          <mxGeometry relative="1" as="geometry">
            <mxPoint x="240" y="480" as="targetPoint" />
            <Array as="points">
              <mxPoint x="190" y="100" />
            </Array>
          </mxGeometry>
        </mxCell>
        <mxCell id="LcpJE_Fi3_uHCIA2HJHg-26" value="Customer" style="shape=umlActor;verticalLabelPosition=bottom;verticalAlign=top;html=1;" vertex="1" parent="1">
          <mxGeometry x="230" y="70" width="30" height="60" as="geometry" />
        </mxCell>
        <mxCell id="LcpJE_Fi3_uHCIA2HJHg-34" value="Condition" style="rhombus;whiteSpace=wrap;html=1;" vertex="1" parent="1">
          <mxGeometry x="400" y="170" width="80" height="40" as="geometry" />
        </mxCell>
        <mxCell id="LcpJE_Fi3_uHCIA2HJHg-35" value="no" style="edgeStyle=orthogonalEdgeStyle;html=1;align=left;verticalAlign=bottom;endArrow=open;endSize=8;rounded=0;" edge="1" source="LcpJE_Fi3_uHCIA2HJHg-34" parent="1">
          <mxGeometry x="-1" relative="1" as="geometry">
            <mxPoint x="560" y="190" as="targetPoint" />
          </mxGeometry>
        </mxCell>
        <mxCell id="LcpJE_Fi3_uHCIA2HJHg-36" value="yes" style="edgeStyle=orthogonalEdgeStyle;html=1;align=left;verticalAlign=top;endArrow=open;endSize=8;rounded=0;" edge="1" source="LcpJE_Fi3_uHCIA2HJHg-34" parent="1">
          <mxGeometry x="-1" relative="1" as="geometry">
            <mxPoint x="440" y="250" as="targetPoint" />
            <Array as="points">
              <mxPoint x="440" y="240" />
              <mxPoint x="440" y="240" />
            </Array>
          </mxGeometry>
        </mxCell>
        <mxCell id="LcpJE_Fi3_uHCIA2HJHg-37" value="" style="edgeStyle=orthogonalEdgeStyle;rounded=0;orthogonalLoop=1;jettySize=auto;html=1;" edge="1" parent="1" source="LcpJE_Fi3_uHCIA2HJHg-24" target="LcpJE_Fi3_uHCIA2HJHg-34">
          <mxGeometry relative="1" as="geometry" />
        </mxCell>
        <mxCell id="LcpJE_Fi3_uHCIA2HJHg-75" style="edgeStyle=orthogonalEdgeStyle;rounded=0;orthogonalLoop=1;jettySize=auto;html=1;" edge="1" parent="1" source="LcpJE_Fi3_uHCIA2HJHg-38" target="LcpJE_Fi3_uHCIA2HJHg-24">
          <mxGeometry relative="1" as="geometry">
            <mxPoint x="605" y="120" as="targetPoint" />
            <Array as="points">
              <mxPoint x="605" y="120" />
            </Array>
          </mxGeometry>
        </mxCell>
        <mxCell id="LcpJE_Fi3_uHCIA2HJHg-38" value="Error Message" style="ellipse;whiteSpace=wrap;html=1;" vertex="1" parent="1">
          <mxGeometry x="560" y="167.5" width="90" height="45" as="geometry" />
        </mxCell>
        <mxCell id="LcpJE_Fi3_uHCIA2HJHg-58" style="edgeStyle=orthogonalEdgeStyle;rounded=0;orthogonalLoop=1;jettySize=auto;html=1;" edge="1" parent="1" source="LcpJE_Fi3_uHCIA2HJHg-41">
          <mxGeometry relative="1" as="geometry">
            <mxPoint x="350" y="330" as="targetPoint" />
          </mxGeometry>
        </mxCell>
        <mxCell id="LcpJE_Fi3_uHCIA2HJHg-41" value="Enter Length" style="ellipse;whiteSpace=wrap;html=1;" vertex="1" parent="1">
          <mxGeometry x="300" y="250" width="100" height="40" as="geometry" />
        </mxCell>
        <mxCell id="LcpJE_Fi3_uHCIA2HJHg-57" style="edgeStyle=orthogonalEdgeStyle;rounded=0;orthogonalLoop=1;jettySize=auto;html=1;" edge="1" parent="1" source="LcpJE_Fi3_uHCIA2HJHg-42">
          <mxGeometry relative="1" as="geometry">
            <mxPoint x="450" y="330" as="targetPoint" />
          </mxGeometry>
        </mxCell>
        <mxCell id="LcpJE_Fi3_uHCIA2HJHg-42" value="Enter Width" style="ellipse;whiteSpace=wrap;html=1;" vertex="1" parent="1">
          <mxGeometry x="400" y="250" width="100" height="40" as="geometry" />
        </mxCell>
        <mxCell id="LcpJE_Fi3_uHCIA2HJHg-59" style="edgeStyle=orthogonalEdgeStyle;rounded=0;orthogonalLoop=1;jettySize=auto;html=1;" edge="1" parent="1" source="LcpJE_Fi3_uHCIA2HJHg-43">
          <mxGeometry relative="1" as="geometry">
            <mxPoint x="550" y="330" as="targetPoint" />
          </mxGeometry>
        </mxCell>
        <mxCell id="LcpJE_Fi3_uHCIA2HJHg-43" value="Enter Height" style="ellipse;whiteSpace=wrap;html=1;" vertex="1" parent="1">
          <mxGeometry x="500" y="250" width="100" height="40" as="geometry" />
        </mxCell>
        <mxCell id="LcpJE_Fi3_uHCIA2HJHg-64" style="edgeStyle=orthogonalEdgeStyle;rounded=0;orthogonalLoop=1;jettySize=auto;html=1;" edge="1" parent="1" source="LcpJE_Fi3_uHCIA2HJHg-60">
          <mxGeometry relative="1" as="geometry">
            <mxPoint x="450" y="420" as="targetPoint" />
          </mxGeometry>
        </mxCell>
        <mxCell id="LcpJE_Fi3_uHCIA2HJHg-60" value="Calculate Price" style="ellipse;whiteSpace=wrap;html=1;strokeWidth=1;" vertex="1" parent="1">
          <mxGeometry x="380" y="360" width="140" height="40" as="geometry" />
        </mxCell>
        <mxCell id="LcpJE_Fi3_uHCIA2HJHg-61" value="&lt;span style=&quot;color: rgba(0 , 0 , 0 , 0) ; font-family: monospace ; font-size: 0px ; background-color: rgb(248 , 249 , 250)&quot;&gt;%3CmxGraphModel%3E%3Croot%3E%3CmxCell%20id%3D%220%22%2F%3E%3CmxCell%20id%3D%221%22%20parent%3D%220%22%2F%3E%3CmxCell%20id%3D%222%22%20value%3D%22Enter%20Length%22%20style%3D%22ellipse%3BwhiteSpace%3Dwrap%3Bhtml%3D1%3B%22%20vertex%3D%221%22%20parent%3D%221%22%3E%3CmxGeometry%20x%3D%22300%22%20y%3D%22250%22%20width%3D%22100%22%20height%3D%2240%22%20as%3D%22geometry%22%2F%3E%3C%2FmxCell%3E%3C%2Froot%3E%3C%2FmxGraphModel%3E&lt;/span&gt;" style="endArrow=block;endFill=1;html=1;edgeStyle=orthogonalEdgeStyle;align=left;verticalAlign=top;rounded=0;exitX=0.5;exitY=1;exitDx=0;exitDy=0;" edge="1" parent="1">
          <mxGeometry x="-1" relative="1" as="geometry">
            <mxPoint x="449.5" y="330" as="sourcePoint" />
            <mxPoint x="449.5" y="360" as="targetPoint" />
          </mxGeometry>
        </mxCell>
        <mxCell id="LcpJE_Fi3_uHCIA2HJHg-69" style="edgeStyle=orthogonalEdgeStyle;rounded=0;orthogonalLoop=1;jettySize=auto;html=1;" edge="1" parent="1" source="LcpJE_Fi3_uHCIA2HJHg-65">
          <mxGeometry relative="1" as="geometry">
            <mxPoint x="440" y="100" as="targetPoint" />
            <Array as="points">
              <mxPoint x="720" y="460" />
              <mxPoint x="720" y="80" />
              <mxPoint x="440" y="80" />
              <mxPoint x="440" y="100" />
            </Array>
          </mxGeometry>
        </mxCell>
        <mxCell id="LcpJE_Fi3_uHCIA2HJHg-65" value="Continue Shopping" style="ellipse;whiteSpace=wrap;html=1;strokeWidth=1;" vertex="1" parent="1">
          <mxGeometry x="380" y="430" width="140" height="60" as="geometry" />
        </mxCell>
        <mxCell id="LcpJE_Fi3_uHCIA2HJHg-67" style="edgeStyle=orthogonalEdgeStyle;rounded=0;orthogonalLoop=1;jettySize=auto;html=1;entryX=0;entryY=0.5;entryDx=0;entryDy=0;" edge="1" parent="1" source="LcpJE_Fi3_uHCIA2HJHg-66" target="LcpJE_Fi3_uHCIA2HJHg-65">
          <mxGeometry relative="1" as="geometry" />
        </mxCell>
        <mxCell id="LcpJE_Fi3_uHCIA2HJHg-70" style="edgeStyle=orthogonalEdgeStyle;rounded=0;orthogonalLoop=1;jettySize=auto;html=1;" edge="1" parent="1" source="LcpJE_Fi3_uHCIA2HJHg-66">
          <mxGeometry relative="1" as="geometry">
            <mxPoint x="280" y="540" as="targetPoint" />
          </mxGeometry>
        </mxCell>
        <mxCell id="LcpJE_Fi3_uHCIA2HJHg-66" value="Condition" style="rhombus;whiteSpace=wrap;html=1;" vertex="1" parent="1">
          <mxGeometry x="250" y="460" width="60" height="40" as="geometry" />
        </mxCell>
        <mxCell id="LcpJE_Fi3_uHCIA2HJHg-80" value="" style="edgeStyle=orthogonalEdgeStyle;rounded=0;orthogonalLoop=1;jettySize=auto;html=1;" edge="1" parent="1" source="LcpJE_Fi3_uHCIA2HJHg-71" target="LcpJE_Fi3_uHCIA2HJHg-79">
          <mxGeometry relative="1" as="geometry" />
        </mxCell>
        <mxCell id="LcpJE_Fi3_uHCIA2HJHg-71" value="Check Out" style="ellipse;whiteSpace=wrap;html=1;strokeWidth=1;" vertex="1" parent="1">
          <mxGeometry x="210" y="550" width="140" height="40" as="geometry" />
        </mxCell>
        <mxCell id="LcpJE_Fi3_uHCIA2HJHg-81" style="edgeStyle=orthogonalEdgeStyle;rounded=0;orthogonalLoop=1;jettySize=auto;html=1;entryX=1;entryY=0.5;entryDx=0;entryDy=0;" edge="1" parent="1" target="LcpJE_Fi3_uHCIA2HJHg-79">
          <mxGeometry relative="1" as="geometry">
            <mxPoint x="450" y="680" as="targetPoint" />
            <mxPoint x="450" y="610" as="sourcePoint" />
            <Array as="points">
              <mxPoint x="450" y="680" />
            </Array>
          </mxGeometry>
        </mxCell>
        <mxCell id="LcpJE_Fi3_uHCIA2HJHg-84" value="" style="edgeStyle=orthogonalEdgeStyle;rounded=0;orthogonalLoop=1;jettySize=auto;html=1;" edge="1" parent="1" source="LcpJE_Fi3_uHCIA2HJHg-76" target="LcpJE_Fi3_uHCIA2HJHg-83">
          <mxGeometry relative="1" as="geometry" />
        </mxCell>
        <mxCell id="LcpJE_Fi3_uHCIA2HJHg-76" value="Customer Service" style="shape=umlActor;verticalLabelPosition=bottom;verticalAlign=top;html=1;strokeWidth=1;" vertex="1" parent="1">
          <mxGeometry x="435" y="520" width="30" height="60" as="geometry" />
        </mxCell>
        <mxCell id="LcpJE_Fi3_uHCIA2HJHg-79" value="Make Payment" style="ellipse;whiteSpace=wrap;html=1;strokeWidth=1;" vertex="1" parent="1">
          <mxGeometry x="210" y="660" width="140" height="40" as="geometry" />
        </mxCell>
        <mxCell id="LcpJE_Fi3_uHCIA2HJHg-86" value="" style="edgeStyle=orthogonalEdgeStyle;rounded=0;orthogonalLoop=1;jettySize=auto;html=1;" edge="1" parent="1" source="LcpJE_Fi3_uHCIA2HJHg-83" target="LcpJE_Fi3_uHCIA2HJHg-85">
          <mxGeometry relative="1" as="geometry" />
        </mxCell>
        <mxCell id="LcpJE_Fi3_uHCIA2HJHg-83" value="Check Inventory" style="ellipse;whiteSpace=wrap;html=1;verticalAlign=top;strokeWidth=1;" vertex="1" parent="1">
          <mxGeometry x="520" y="520" width="120" height="30" as="geometry" />
        </mxCell>
        <mxCell id="LcpJE_Fi3_uHCIA2HJHg-107" style="edgeStyle=orthogonalEdgeStyle;rounded=0;orthogonalLoop=1;jettySize=auto;html=1;fontColor=#000000;" edge="1" parent="1" source="LcpJE_Fi3_uHCIA2HJHg-85">
          <mxGeometry relative="1" as="geometry">
            <mxPoint x="580" y="730" as="targetPoint" />
          </mxGeometry>
        </mxCell>
        <mxCell id="LcpJE_Fi3_uHCIA2HJHg-85" value="Contact Supplier" style="ellipse;whiteSpace=wrap;html=1;verticalAlign=top;strokeWidth=1;" vertex="1" parent="1">
          <mxGeometry x="520" y="660" width="120" height="30" as="geometry" />
        </mxCell>
        <mxCell id="LcpJE_Fi3_uHCIA2HJHg-92" value="" style="edgeStyle=orthogonalEdgeStyle;rounded=0;orthogonalLoop=1;jettySize=auto;html=1;" edge="1" parent="1" source="LcpJE_Fi3_uHCIA2HJHg-87" target="LcpJE_Fi3_uHCIA2HJHg-91">
          <mxGeometry relative="1" as="geometry" />
        </mxCell>
        <mxCell id="LcpJE_Fi3_uHCIA2HJHg-87" value="Condition" style="rhombus;whiteSpace=wrap;html=1;" vertex="1" parent="1">
          <mxGeometry x="550" y="580" width="60" height="40" as="geometry" />
        </mxCell>
        <mxCell id="LcpJE_Fi3_uHCIA2HJHg-90" value="No" style="text;html=1;align=center;verticalAlign=middle;resizable=0;points=[];autosize=1;strokeColor=none;" vertex="1" parent="1">
          <mxGeometry x="575" y="630" width="30" height="20" as="geometry" />
        </mxCell>
        <mxCell id="LcpJE_Fi3_uHCIA2HJHg-114" style="edgeStyle=orthogonalEdgeStyle;rounded=0;orthogonalLoop=1;jettySize=auto;html=1;fontColor=#000000;" edge="1" parent="1" source="LcpJE_Fi3_uHCIA2HJHg-91">
          <mxGeometry relative="1" as="geometry">
            <mxPoint x="720" y="560" as="targetPoint" />
          </mxGeometry>
        </mxCell>
        <mxCell id="LcpJE_Fi3_uHCIA2HJHg-91" value="Contact Shipping" style="ellipse;whiteSpace=wrap;html=1;" vertex="1" parent="1">
          <mxGeometry x="660" y="587.5" width="120" height="25" as="geometry" />
        </mxCell>
        <mxCell id="LcpJE_Fi3_uHCIA2HJHg-93" value="Yes" style="text;html=1;align=center;verticalAlign=middle;resizable=0;points=[];autosize=1;strokeColor=none;fontColor=#000000;" vertex="1" parent="1">
          <mxGeometry x="620" y="580" width="30" height="20" as="geometry" />
        </mxCell>
        <mxCell id="LcpJE_Fi3_uHCIA2HJHg-100" style="edgeStyle=orthogonalEdgeStyle;rounded=0;orthogonalLoop=1;jettySize=auto;html=1;entryX=0.5;entryY=1;entryDx=0;entryDy=0;fontColor=#000000;" edge="1" parent="1" source="LcpJE_Fi3_uHCIA2HJHg-94" target="LcpJE_Fi3_uHCIA2HJHg-99">
          <mxGeometry relative="1" as="geometry">
            <Array as="points">
              <mxPoint x="855" y="530" />
            </Array>
          </mxGeometry>
        </mxCell>
        <mxCell id="LcpJE_Fi3_uHCIA2HJHg-94" value="Shipper" style="shape=umlActor;verticalLabelPosition=bottom;verticalAlign=top;html=1;fontColor=#000000;strokeWidth=1;" vertex="1" parent="1">
          <mxGeometry x="705" y="480" width="30" height="60" as="geometry" />
        </mxCell>
        <mxCell id="LcpJE_Fi3_uHCIA2HJHg-103" style="edgeStyle=orthogonalEdgeStyle;rounded=0;orthogonalLoop=1;jettySize=auto;html=1;entryX=0.5;entryY=1;entryDx=0;entryDy=0;fontColor=#000000;" edge="1" parent="1" source="LcpJE_Fi3_uHCIA2HJHg-99" target="LcpJE_Fi3_uHCIA2HJHg-102">
          <mxGeometry relative="1" as="geometry" />
        </mxCell>
        <mxCell id="LcpJE_Fi3_uHCIA2HJHg-99" value="Verify Inventory" style="ellipse;whiteSpace=wrap;html=1;fontColor=#000000;strokeWidth=1;" vertex="1" parent="1">
          <mxGeometry x="795" y="430" width="120" height="30" as="geometry" />
        </mxCell>
        <mxCell id="LcpJE_Fi3_uHCIA2HJHg-106" style="edgeStyle=orthogonalEdgeStyle;rounded=0;orthogonalLoop=1;jettySize=auto;html=1;entryX=0.5;entryY=1;entryDx=0;entryDy=0;fontColor=#000000;" edge="1" parent="1" source="LcpJE_Fi3_uHCIA2HJHg-102" target="LcpJE_Fi3_uHCIA2HJHg-105">
          <mxGeometry relative="1" as="geometry" />
        </mxCell>
        <mxCell id="LcpJE_Fi3_uHCIA2HJHg-102" value="Ship Order" style="ellipse;whiteSpace=wrap;html=1;fontColor=#000000;strokeWidth=1;" vertex="1" parent="1">
          <mxGeometry x="795" y="370" width="120" height="30" as="geometry" />
        </mxCell>
        <mxCell id="LcpJE_Fi3_uHCIA2HJHg-105" value="" style="ellipse;html=1;shape=endState;fillColor=#000000;strokeColor=#ff0000;fontColor=#000000;" vertex="1" parent="1">
          <mxGeometry x="840" y="280" width="30" height="30" as="geometry" />
        </mxCell>
        <mxCell id="LcpJE_Fi3_uHCIA2HJHg-109" style="edgeStyle=orthogonalEdgeStyle;rounded=0;orthogonalLoop=1;jettySize=auto;html=1;fontColor=#000000;" edge="1" parent="1" source="LcpJE_Fi3_uHCIA2HJHg-108">
          <mxGeometry relative="1" as="geometry">
            <mxPoint x="720" y="613" as="targetPoint" />
            <Array as="points">
              <mxPoint x="720" y="745" />
              <mxPoint x="720" y="613" />
            </Array>
          </mxGeometry>
        </mxCell>
        <mxCell id="LcpJE_Fi3_uHCIA2HJHg-108" value="Order Products" style="ellipse;whiteSpace=wrap;html=1;verticalAlign=top;strokeWidth=1;" vertex="1" parent="1">
          <mxGeometry x="520" y="730" width="120" height="30" as="geometry" />
        </mxCell>
      </root>
    </mxGraphModel>
  </diagram>
</mxfile>
